<svg width="396" height="647" viewBox="0 0 396 647" fill="none" xmlns="http://www.w3.org/2000/svg">
<path d="M127.573 593.726C121.412 589.785 104.705 596.393 100.408 602.938C96.1065 609.478 124.823 631.081 129.548 624.107C134.274 617.137 135.912 599.065 127.573 593.726Z" fill="#65BCCD"/>
<path d="M155.211 609.946C143.592 605.899 132.801 628.115 132.801 628.115C132.801 628.115 161.213 641.668 162.109 637.775C163.005 633.883 166.835 613.993 155.211 609.946Z" fill="#65BCCD"/>
<path d="M181.143 616.65C170.256 616.404 166.161 635.663 165.896 639.256C165.636 642.844 195.089 648.468 195.07 642.02C195.051 635.571 192.03 616.896 181.138 616.65H181.143Z" fill="#65BCCD"/>
<path d="M148.043 12.813C150.196 23.5975 162.379 39.2534 176.036 37.1987C190.084 35.0862 196.414 15.0027 196.866 5.82908C197.319 -3.34453 145.889 2.02362 148.048 12.8082L148.043 12.813Z" fill="#ED6B6B"/>
<path d="M112.92 29.1537C118.238 35.6167 130.455 51.9961 141.809 45.8563C148.973 41.9833 146.728 19.6666 144.415 14.2888C142.103 8.91104 107.606 22.6907 112.92 29.1537Z" fill="#65BCCD"/>
<path d="M83.231 54.4655C88.0291 59.9687 105.208 70.5313 113.845 62.1487C122.198 54.0362 113.845 37.2614 110.969 32.1103C108.093 26.9591 78.4378 48.9623 83.231 54.4655Z" fill="#65BCCD"/>
<path d="M171.089 0.562165C157.287 1.66666 146.921 7.01552 147.845 11.9158C149.04 18.2775 166.782 14.8435 173.069 14.1007C179.356 13.3579 197.03 12.7165 196.708 5.52517C196.409 -1.08735 181.769 -0.29153 171.089 0.562165Z" fill="#FD9696"/>
<path d="M125.344 16.054C117.776 19.271 110.121 26.0041 112.857 29.3031C115.598 32.6022 125.084 27.0845 130.33 24.808C136.476 22.1408 146.077 19.0781 144.324 14.0765C142.734 9.51864 132.912 12.837 125.344 16.054Z" fill="#7EC8D6"/>
<path d="M90.7303 35.8627C80.8451 43.5893 80.2623 52.6279 83.5766 54.8996C87.0451 57.2726 90.5521 53.8674 94.0398 52.98C98.8379 51.7597 102.851 52.5411 105.12 50.361C107.384 48.1761 106.873 45.3546 107.909 42.2388C108.954 39.0942 113.054 35.7758 110.963 32.1103C108.805 28.3337 100.668 28.0926 90.7255 35.8675L90.7303 35.8627Z" fill="#8ACEDB"/>
<path d="M87.8551 65.0041C84.8009 62.9301 81.8527 57.7983 73.2345 58.0153C64.6211 58.2324 54.9094 82.2612 60.3626 87.832C65.8158 93.4027 71.3799 91.4348 74.2173 92.5297C77.0499 93.6197 77.204 97.6229 86.1064 99.3014C95.3798 101.047 108.252 78.9863 101.161 70.2516C97.5958 65.8529 89.8784 66.3883 87.8551 65.0089V65.0041Z" fill="#8CD2DF"/>
<path d="M68.6242 102.06C64.4427 100.666 63.8406 95.5297 55.8535 96.1278C45.053 96.9429 37.5524 121.907 40.6403 126.706C45.053 133.565 53.8783 130.777 56.5472 131.94C59.2208 133.102 61.7739 138.335 69.9008 138.104C79.5547 137.829 87.3203 112.411 82.0934 106.946C77.0401 101.66 71.5146 103.025 68.6194 102.065L68.6242 102.06Z" fill="#8CD2DF"/>
<path d="M53.1071 137.761C45.7751 135.258 33.7414 131.732 28.2785 135.258C23.1143 138.595 24.4439 151.777 22.2761 156.277C20.1132 160.782 11.9429 169.724 15.2765 177.967C20.6093 191.148 52.6012 197.486 61.6 192.648C68.932 188.708 67.9348 176.298 69.1006 171.296C70.2664 166.29 78.9328 158.949 76.4326 151.941C73.9372 144.933 60.4342 140.264 53.1071 137.761Z" fill="#8CD2DF"/>
<path d="M37.2774 197.206C31.275 196.372 21.9438 190.531 14.448 194.703C6.94745 198.875 8.11323 210.388 6.78364 216.561C5.44924 222.735 -0.50497 233.597 2.52031 239.438C7.3521 248.78 16.2738 245.983 27.45 248.592C37.2725 250.888 46.6567 250.7 50.9441 247.425C60.1067 240.417 62.9586 211.174 57.7944 204.171C54.2488 199.362 43.2798 198.041 37.2822 197.206H37.2774Z" fill="#8CD2DF"/>
<path d="M6.61549 255.315C0.670898 261.262 3.13256 273.17 2.70864 277.748C2.02939 285.06 -3.23113 292.193 3.04586 299.674C9.32766 307.154 34.055 308.982 43.4536 300.696C54.8273 290.669 56.3544 270.103 46.5078 259.222C40.5584 252.648 12.5553 249.364 6.61549 255.315Z" fill="#8CD2DF"/>
<path d="M45.8132 358.251C39.6326 353.297 33.24 357.633 26.5006 357.816C19.7659 358 9.33639 354.701 4.79364 362.35C-0.611405 371.447 5.28021 378.223 5.38619 383.837C5.49699 389.451 1.00241 399.064 7.36611 404.422C13.7298 409.781 22.112 406.25 27.8976 405.797C33.6832 405.344 44.2958 407.389 49.4166 400.111C54.5374 392.837 50.3801 386.085 49.2383 379.935C48.0918 373.786 51.9939 363.209 45.8181 358.255L45.8132 358.251Z" fill="#8CD2DF"/>
<path d="M50.4432 410.934C37.9952 404.34 9.78013 415.873 6.88974 423.156C3.18039 432.498 8.68178 438.729 10.9556 445.434C13.2293 452.143 11.235 463.52 19.9303 467.601C33.2116 473.827 61.21 462.209 64.7989 452.866C67.8724 444.865 62.7612 437.413 60.8535 431.664C58.941 425.914 60.8535 416.451 50.4432 410.939V410.934Z" fill="#8CD2DF"/>
<path d="M65.1798 466.178C58.1417 464.519 50.0774 470.63 42.9815 472.974C35.8808 475.323 23.9482 478.993 22.3344 486.734C20.2052 496.935 28.8764 502.877 31.2754 508.202C33.6696 513.527 32.6869 524.331 41.44 527.437C50.0533 530.499 58.4837 524.687 64.6354 521.765C70.7872 518.842 82.1127 515.422 83.8662 507.146C85.6245 498.869 78.8706 492.078 76.2211 486.445C73.5716 480.811 72.2179 467.837 65.1798 466.183V466.178Z" fill="#8CD2DF"/>
<path d="M79.6999 525.044C74.3719 524.485 70.0122 528.797 66.5486 530.012C63.0849 531.223 55.7433 530.171 51.8365 537.498C47.9296 544.824 57.728 565.819 66.6112 566.523C73.2928 567.049 75.0897 563.065 79.1989 560.842C83.3081 558.618 90.1391 557.808 91.512 551.094C93.3137 542.316 84.0548 525.502 79.6951 525.044H79.6999Z" fill="#8CD2DF"/>
<path d="M98.0436 560.75C92.4362 559.578 90.6683 562.317 84.9501 565.824C79.5981 569.108 75.2336 569.562 74.0196 575.108C72.3239 582.874 81.3612 598.279 89.4543 600.324C95.3459 601.814 98.9156 596.981 104.2 593.431C109.268 590.026 111.585 588.377 112.621 583.231C113.922 576.758 104.692 562.134 98.0484 560.745L98.0436 560.75Z" fill="#8CD2DF"/>
<path d="M123.358 616.877C121.123 614.292 122.11 610.346 118.887 607.925C116.479 606.117 113.212 606.117 109.518 605.687C105.823 605.258 102.687 600.531 99.6324 604.568C97.4839 607.409 99.801 616.187 108.655 622.211C117.51 628.235 126.45 629.528 129.288 624.536C131.446 620.735 125.593 619.457 123.358 616.877Z" fill="#8ACEDB"/>
<path d="M148.703 630.936C145.085 629.513 134.737 624.391 132.569 628.356C130.402 632.316 135.845 634.843 145.711 637.809C156.131 640.944 160.746 641.673 162.003 637.356C163.265 633.039 152.316 632.364 148.698 630.936H148.703Z" fill="#7EC8D6"/>
<path d="M180.795 637.756C173.931 637.341 165.943 636.266 165.64 639.464C165.014 646.086 174.822 645.285 181.291 645.82C187.756 646.356 195.291 647.224 195.045 641.465C194.871 637.264 187.665 638.171 180.795 637.756Z" fill="#7EC8D6"/>
<path d="M198.749 5.8531C199.231 15.0267 205.465 35.144 219.522 37.2131C233.184 39.2244 245.314 23.5251 247.433 12.7357C249.553 1.94635 198.268 -3.3205 198.749 5.8531Z" fill="#65BCCD"/>
<path d="M251.356 14.5058C249.125 19.9173 247.203 42.2629 254.42 46.0298C265.861 52.0057 277.842 35.4478 283.064 28.9077C288.286 22.3675 253.591 9.09423 251.356 14.5058Z" fill="#65BCCD"/>
<path d="M288.304 31.9366C285.423 37.0877 277.33 54.0411 285.684 62.1488C294.321 70.5314 311.5 59.9639 316.298 54.4655C321.091 48.9623 291.18 26.7855 288.299 31.9366H288.304Z" fill="#65BCCD"/>
<path d="M322.762 58.0106C314.144 57.7935 311.2 62.9254 308.141 64.9993C306.113 66.3787 298.401 65.8433 294.836 70.242C287.745 78.9767 300.617 101.038 309.89 99.2918C318.792 97.6133 318.942 93.6101 321.779 92.5201C324.617 91.4253 330.181 93.3931 335.634 87.8224C341.087 82.2517 331.38 58.2276 322.762 58.0058V58.0106Z" fill="#8CD2DF"/>
<path d="M340.144 96.1278C332.156 95.5249 331.554 100.662 327.373 102.06C324.482 103.025 318.957 101.66 313.899 106.941C308.672 112.406 316.442 137.824 326.092 138.099C334.223 138.33 336.776 133.097 339.445 131.935C342.114 130.772 350.939 133.565 355.352 126.702C358.44 121.903 350.939 96.9381 340.139 96.123L340.144 96.1278Z" fill="#8CD2DF"/>
<path d="M367.717 135.258C362.254 131.732 350.22 135.258 342.888 137.761C335.556 140.264 322.058 144.933 319.558 151.941C317.058 158.949 325.724 166.29 326.89 171.296C328.056 176.303 327.059 188.708 334.391 192.648C343.389 197.486 375.381 191.148 380.714 177.967C384.048 169.719 375.882 160.782 373.714 156.277C371.552 151.772 372.881 138.591 367.712 135.258H367.717Z" fill="#8CD2DF"/>
<path d="M381.553 194.703C374.053 190.531 364.721 196.372 358.724 197.206C352.726 198.041 341.757 199.362 338.212 204.171C333.047 211.179 335.895 240.421 345.062 247.425C349.349 250.7 358.734 250.888 368.556 248.592C379.732 245.978 388.649 248.78 393.486 239.438C396.506 233.597 390.557 222.735 389.222 216.561C387.893 210.388 389.059 198.875 381.558 194.703H381.553Z" fill="#8CD2DF"/>
<path d="M389.381 255.315C383.441 249.364 355.438 252.648 349.489 259.222C339.642 270.103 341.169 290.669 352.543 300.696C361.942 308.982 386.664 307.154 392.951 299.674C399.233 292.193 393.972 285.06 393.288 277.748C392.864 273.166 395.326 261.262 389.381 255.315Z" fill="#8CD2DF"/>
<path d="M266.318 593.441C257.979 598.78 259.612 616.853 264.343 623.822C269.074 630.792 297.785 609.193 293.483 602.653C289.186 596.113 272.479 589.501 266.318 593.441Z" fill="#65BCCD"/>
<path d="M239.707 610.862C228.078 614.89 231.869 634.785 232.761 638.677C233.652 642.57 262.089 629.07 262.089 629.07C262.089 629.07 251.336 606.835 239.707 610.858V610.862Z" fill="#65BCCD"/>
<path d="M213.741 617.436C202.854 617.682 199.829 636.357 199.81 642.806C199.79 649.255 229.243 643.631 228.983 640.042C228.723 636.449 224.624 617.195 213.737 617.436H213.741Z" fill="#65BCCD"/>
<path d="M390.109 362.355C385.566 354.706 375.137 358 368.402 357.821C361.663 357.638 355.27 353.302 349.09 358.255C342.909 363.209 346.816 373.786 345.669 379.935C344.528 386.085 340.37 392.837 345.491 400.111C350.612 407.389 361.22 405.344 367.01 405.797C372.796 406.25 381.178 409.781 387.542 404.423C393.905 399.064 389.411 389.451 389.521 383.837C389.632 378.223 395.524 371.447 390.114 362.35L390.109 362.355Z" fill="#8CD2DF"/>
<path d="M344.46 410.934C334.05 416.447 335.962 425.91 334.05 431.659C332.137 437.408 327.026 444.86 330.105 452.861C333.693 462.204 361.692 473.827 374.973 467.596C383.668 463.516 381.674 452.143 383.948 445.429C386.222 438.725 391.723 432.493 388.014 423.151C385.123 415.868 356.913 404.341 344.46 410.929V410.934Z" fill="#8CD2DF"/>
<path d="M351.922 472.979C344.826 470.63 336.757 464.524 329.724 466.183C322.685 467.837 321.332 480.811 318.682 486.445C316.033 492.078 309.279 498.869 311.037 507.146C312.791 515.422 324.116 518.847 330.268 521.765C336.42 524.692 344.85 530.499 353.463 527.437C362.217 524.331 361.234 513.522 363.628 508.202C366.027 502.877 374.693 496.935 372.569 486.734C370.955 478.993 359.018 475.323 351.922 472.974V472.979Z" fill="#8CD2DF"/>
<path d="M328.36 530.012C324.896 528.801 320.537 524.485 315.209 525.044C310.849 525.502 301.59 542.316 303.392 551.094C304.769 557.808 311.596 558.618 315.705 560.842C319.814 563.06 321.616 567.049 328.292 566.523C337.176 565.819 346.974 544.824 343.067 537.498C339.165 530.171 331.824 531.223 328.36 530.012Z" fill="#8CD2DF"/>
<path d="M309.958 565.829C304.24 562.317 302.472 559.583 296.865 560.755C290.222 562.144 280.987 576.772 282.293 583.24C283.328 588.386 285.645 590.036 290.713 593.441C295.998 596.991 299.567 601.824 305.459 600.333C313.552 598.288 322.59 582.883 320.894 575.118C319.68 569.567 315.315 569.113 309.963 565.834L309.958 565.829Z" fill="#8CD2DF"/>
<path d="M224.349 0.557299C213.669 -0.262634 199.024 -1.01022 198.75 5.60712C198.451 12.7984 216.121 13.382 222.413 14.1055C228.704 14.829 246.451 18.2051 247.631 11.8386C248.537 6.93348 238.156 1.61839 224.349 0.557299Z" fill="#7EC8D6"/>
<path d="M270.451 15.9914C262.84 12.8853 252.969 9.71172 251.447 14.2889C249.77 19.3194 259.41 22.2374 265.6 24.8178C270.88 27.0171 280.442 32.3949 283.135 29.0573C285.823 25.7197 278.067 19.0975 270.456 15.9914H270.451Z" fill="#7EC8D6"/>
<path d="M308.797 35.8627C298.854 28.0926 290.717 28.329 288.564 32.1055C286.473 35.7711 290.573 39.0894 291.618 42.2341C292.654 45.345 292.143 48.1713 294.408 50.3562C296.677 52.5411 300.689 51.7549 305.487 52.9752C308.98 53.8626 312.487 57.2726 315.951 54.8948C319.265 52.6231 318.682 43.5845 308.797 35.8579V35.8627Z" fill="#8ACEDB"/>
<path d="M284.368 605.407C280.673 605.837 277.407 605.837 274.998 607.645C271.775 610.062 272.763 614.012 270.528 616.597C268.292 619.177 262.439 620.456 264.598 624.256C267.435 629.248 276.376 627.955 285.23 621.931C294.084 615.907 296.406 607.129 294.253 604.288C291.199 600.256 288.063 604.978 284.368 605.407Z" fill="#8ACEDB"/>
<path d="M246.176 631.862C242.558 633.28 231.608 633.936 232.861 638.258C234.113 642.579 238.728 641.861 249.153 638.74C259.024 635.788 264.472 633.275 262.309 629.311C260.151 625.341 249.794 630.444 246.171 631.862H246.176Z" fill="#7EC8D6"/>
<path d="M214.093 638.547C207.224 638.962 200.017 638.05 199.844 642.256C199.603 648.015 207.132 647.147 213.597 646.611C220.062 646.076 229.87 646.877 229.249 640.254C228.945 637.057 220.958 638.132 214.093 638.547Z" fill="#7EC8D6"/>
<path d="M27.4025 265.27C26.7762 267.007 26.1933 269.081 25.7405 271.338C25.278 273.595 24.9745 276.04 24.8397 278.505C24.777 279.735 24.7963 280.974 24.8156 282.19C24.8156 283.405 24.9986 284.606 25.0998 285.759C25.2877 286.912 25.4225 288.026 25.7212 289.063C25.9717 290.105 26.2415 291.079 26.6076 291.952C26.9063 292.834 27.2627 293.616 27.6481 294.281C27.995 294.957 28.3081 295.531 28.6598 295.955C29.3101 296.828 29.6955 297.291 29.6955 297.291C29.6955 297.291 29.5124 296.712 29.1849 295.695C28.9874 295.212 28.8766 294.576 28.7031 293.876C28.5104 293.182 28.3708 292.386 28.2407 291.508C28.0721 290.65 27.9998 289.69 27.889 288.691C27.7445 287.703 27.7927 286.622 27.6819 285.537C27.6626 283.338 27.6 280.994 27.7734 278.64C27.8408 276.286 28.0865 273.933 28.2888 271.719C28.5201 269.51 28.7802 267.446 29.0259 265.666C29.2812 263.886 29.5269 262.42 29.7051 261.373C29.9123 260.322 30.0279 259.719 30.0279 259.719C30.0279 259.719 29.6907 260.235 29.1608 261.161C28.6646 262.116 27.9902 263.519 27.388 265.256L27.4025 265.27Z" fill="#006C81"/>
<path d="M11.4185 277.897C9.75648 277.864 8.65332 277.748 8.65332 277.748C8.65332 277.748 9.72277 278.047 11.3655 278.355C13.0082 278.674 15.2049 279.031 17.4064 279.354C21.8095 280 26.2414 280.526 26.2414 280.526L26.3426 277.579C26.3426 277.579 21.9251 277.796 17.498 277.883C15.2868 277.931 13.0708 277.941 11.4137 277.897H11.4185Z" fill="#006C81"/>
<path d="M28.1777 222.296C27.7442 224.645 27.4118 227.023 27.2962 229.275C27.1805 231.523 27.1998 233.635 27.4407 235.434C27.6093 237.233 27.9802 238.714 28.2933 239.717C28.6257 240.72 28.8377 241.275 28.8377 241.275C28.8377 241.275 28.8522 240.677 28.8763 239.635C28.8955 238.608 28.9581 237.147 29.1364 235.415C29.2761 233.688 29.5699 231.682 29.8782 229.54C30.2299 227.404 30.5864 225.122 31.0681 222.856C31.4583 220.574 32.0027 218.317 32.4218 216.176C32.8939 214.039 33.3371 212.052 33.7177 210.344C34.4788 206.925 35.0762 204.605 35.0762 204.605C35.0762 204.605 33.578 206.51 32.1231 209.804C30.6153 213.06 29.093 217.598 28.1777 222.296Z" fill="#006C81"/>
<path d="M42.1041 165.431C41.4538 167.732 40.9046 170.066 40.5867 172.299C40.2639 174.528 40.0905 176.635 40.1627 178.449C40.1627 180.253 40.3988 181.762 40.6156 182.79C40.8516 183.822 41.0154 184.391 41.0154 184.391C41.0154 184.391 41.0828 183.798 41.2033 182.761C41.3189 181.738 41.5116 180.291 41.8488 178.584C42.1475 176.877 42.6244 174.909 43.1302 172.806C43.6794 170.713 44.243 168.475 44.9319 166.261C45.5292 164.023 46.2807 161.828 46.8925 159.735C47.5622 157.652 48.1836 155.713 48.7183 154.044C49.7878 150.711 50.5971 148.454 50.5971 148.454C50.5971 148.454 48.9303 150.214 47.1816 153.359C45.3799 156.46 43.4481 160.844 42.1041 165.436V165.431Z" fill="#006C81"/>
<path d="M43.0433 225.142C42.3785 225.108 41.6414 225.118 40.837 225.036C37.6142 224.814 33.3894 224.201 29.1838 223.314C27.0738 222.909 24.9735 222.407 22.9936 221.963C21.0088 221.495 19.1541 221.061 17.5644 220.685C14.3753 219.928 12.1738 219.479 12.1738 219.479C12.1738 219.479 13.9803 220.835 17.0008 222.272C19.9972 223.748 24.2075 225.286 28.5961 226.203C30.7976 226.608 33.0232 226.955 35.1429 227.008C37.248 227.129 39.2424 226.989 40.914 226.729C41.7523 226.647 42.5134 226.425 43.1782 226.266C43.8478 226.126 44.4162 225.928 44.8787 225.74C45.8036 225.388 46.3046 225.156 46.3046 225.156C46.3046 225.156 45.7458 225.156 44.7727 225.156C44.2958 225.185 43.7129 225.171 43.0481 225.137L43.0433 225.142Z" fill="#006C81"/>
<path d="M57.0577 171.373C56.4122 171.209 55.6944 171.065 54.914 170.824C51.802 169.951 47.7891 168.499 43.8485 166.782C41.8638 165.962 39.9128 165.041 38.0581 164.206C36.2083 163.348 34.4789 162.547 32.9999 161.857C30.0325 160.468 27.9658 159.586 27.9658 159.586C27.9658 159.586 29.4592 161.274 32.128 163.3C34.7631 165.354 38.5736 167.708 42.6924 169.492C44.7687 170.336 46.8738 171.123 48.9405 171.605C50.9782 172.15 52.9581 172.415 54.649 172.497C55.4872 172.589 56.2773 172.521 56.9613 172.497C57.6454 172.497 58.2427 172.415 58.7293 172.324C59.7024 172.164 60.2419 172.044 60.2419 172.044C60.2419 172.044 59.6976 171.933 58.7389 171.74C58.2668 171.672 57.6984 171.542 57.0529 171.373H57.0577Z" fill="#006C81"/>
<path d="M63.5377 103.724C62.7959 103.276 62.3431 103.092 62.3431 103.092C62.3431 103.092 62.6321 103.478 63.1428 104.153C63.6148 104.824 64.2941 105.813 64.5735 107.009C64.7084 107.607 64.718 108.234 64.6024 108.871C64.4868 109.512 64.1737 110.1 63.7979 110.983C63.0608 112.613 62.3768 114.388 61.6879 116.163C61.0665 117.928 60.445 119.689 59.8621 121.343C59.2552 122.944 58.6722 124.44 57.9448 125.424C57.2656 126.436 56.2443 126.837 55.4302 127.102C54.6305 127.387 54.1729 127.551 54.1729 127.551C54.1729 127.551 54.6546 127.618 55.5073 127.681C55.936 127.705 56.4707 127.734 57.1211 127.608C57.7714 127.488 58.5133 127.145 59.1443 126.615C60.4498 125.568 61.3796 124.025 62.2323 122.395C63.1138 120.735 63.7594 118.941 64.4579 117.161C65.0889 115.367 65.7296 113.578 66.2355 111.861C66.4956 111.08 66.7943 110.033 66.7894 109.035C66.8087 108.041 66.5293 107.11 66.1391 106.382C65.3491 104.906 64.2459 104.182 63.533 103.719L63.5377 103.724Z" fill="#006C81"/>
<path d="M68.2581 106.97C67.4921 107.134 66.6298 107.404 65.8109 108.022C64.9534 108.542 64.2597 109.84 64.0284 110.53C63.2962 112.145 62.617 113.906 61.9281 115.666C61.2874 117.456 60.5937 119.226 60.1649 121.03C59.7073 122.795 59.4231 124.521 59.4761 126.07C59.4761 127.632 60.1264 128.983 60.7671 129.581C61.3885 130.194 61.7691 130.483 61.7691 130.483C61.7691 130.483 61.5861 130.039 61.2633 129.267C60.9502 128.505 60.8683 127.488 61.1669 126.205C61.7884 123.615 63.2914 120.277 64.6692 116.756C65.3002 114.972 65.9361 113.192 66.4371 111.489C66.7454 110.501 66.7839 110.177 67.2416 109.686C67.6559 109.242 68.2147 108.856 68.788 108.571C69.9489 108.012 71.0858 107.732 71.8903 107.573C72.69 107.419 73.1862 107.37 73.1862 107.37C73.1862 107.37 72.7478 107.178 71.8951 106.989C71.0521 106.821 69.7996 106.657 68.2532 106.97H68.2581Z" fill="#006C81"/>
<path d="M83.9234 68.6696C83.6007 68.0185 83.4176 67.6471 83.4176 67.6471C83.4176 67.6471 83.3598 68.0619 83.355 68.795C83.3454 69.5185 83.355 70.5217 83.2057 71.6358C83.0611 72.7548 82.7095 73.9847 82.1699 75.2435C81.6111 76.5217 80.9078 77.7371 80.0214 79.1069C78.3594 81.8368 76.9142 84.5811 75.3775 86.1294C74.6115 86.9155 73.807 87.4509 73.1904 87.774C72.5738 88.1117 72.1836 88.2805 72.1836 88.2805C72.1836 88.2805 72.5931 88.3625 73.3398 88.3432C74.0768 88.3287 75.1992 88.1503 76.3747 87.4943C78.8122 86.1969 80.85 83.3609 82.536 80.6406C83.3502 79.2853 84.2317 77.6744 84.6219 76.0779C85.0603 74.4863 85.1374 72.8802 84.8917 71.5876C84.6846 70.2854 84.2366 69.3111 83.9283 68.6648L83.9234 68.6696Z" fill="#006C81"/>
<path d="M86.1833 72.4847C84.9549 73.0442 83.7747 74.0522 82.7438 75.2242C81.6888 76.4011 80.812 77.7612 79.9594 79.1696C78.3985 81.9139 77.0545 85.184 77.3869 87.9236C77.5459 89.2692 78.071 90.229 78.4323 90.8319C78.808 91.4444 79.0441 91.7772 79.0441 91.7772C79.0441 91.7772 79.0392 91.3625 78.9911 90.6583C78.9381 89.9541 78.8899 88.9895 79.0778 87.9573C79.2946 86.9203 79.7426 85.7676 80.3688 84.5184C81.024 83.2596 81.6888 81.9959 82.5222 80.6165C84.03 77.9831 85.5426 75.3255 87.0842 73.9075C87.855 73.2033 88.6884 72.8079 89.3435 72.5715C90.0083 72.3255 90.3889 72.1808 90.3889 72.1808C90.3889 72.1808 89.9939 72.0796 89.2761 71.9927C88.5728 71.9011 87.4166 71.8963 86.1833 72.4847Z" fill="#006C81"/>
<path d="M370.252 271.333C369.804 269.076 369.216 267.002 368.59 265.265C367.988 263.529 367.318 262.125 366.817 261.171C366.287 260.244 365.95 259.728 365.95 259.728C365.95 259.728 366.071 260.331 366.273 261.383C366.451 262.425 366.697 263.896 366.952 265.675C367.193 267.45 367.458 269.515 367.689 271.728C367.892 273.942 368.142 276.296 368.205 278.65C368.378 281.003 368.32 283.347 368.296 285.547C368.185 286.632 368.234 287.712 368.089 288.701C367.978 289.699 367.906 290.654 367.737 291.518C367.607 292.391 367.468 293.191 367.275 293.886C367.102 294.585 366.991 295.222 366.793 295.704C366.47 296.722 366.283 297.301 366.283 297.301C366.283 297.301 366.668 296.838 367.318 295.965C367.67 295.535 367.983 294.961 368.33 294.291C368.715 293.63 369.072 292.849 369.37 291.961C369.737 291.088 370.006 290.119 370.257 289.072C370.556 288.035 370.69 286.921 370.878 285.768C370.979 284.616 371.163 283.415 371.163 282.199C371.187 280.984 371.206 279.744 371.138 278.515C371.004 276.05 370.7 273.605 370.238 271.347L370.252 271.333Z" fill="#006C81"/>
<path d="M378.436 277.449C376.211 277.454 373.98 277.497 372.285 277.579C371.456 277.613 370.685 277.685 370.199 277.724C369.717 277.777 369.438 277.806 369.438 277.806L370.001 280.704C370.001 280.704 370.266 280.627 370.738 280.497C371.205 280.376 371.798 280.222 372.617 280.048C374.216 279.696 376.389 279.291 378.571 278.92C382.936 278.172 387.334 277.55 387.334 277.55C387.334 277.55 382.897 277.439 378.441 277.454L378.436 277.449Z" fill="#006C81"/>
<path d="M367.819 222.296C366.909 217.598 365.382 213.06 363.874 209.804C362.419 206.515 360.921 204.605 360.921 204.605C360.921 204.605 361.518 206.925 362.279 210.344C362.66 212.052 363.098 214.044 363.575 216.176C363.994 218.317 364.539 220.569 364.929 222.856C365.411 225.122 365.767 227.404 366.119 229.54C366.427 231.682 366.721 233.684 366.861 235.415C367.039 237.147 367.102 238.603 367.121 239.635C367.145 240.677 367.159 241.275 367.159 241.275C367.159 241.275 367.371 240.725 367.704 239.717C368.017 238.714 368.388 237.233 368.556 235.434C368.797 233.635 368.817 231.523 368.701 229.275C368.59 227.023 368.258 224.65 367.819 222.296Z" fill="#006C81"/>
<path d="M353.891 165.431C352.552 160.84 350.616 156.456 348.814 153.354C347.06 150.214 345.398 148.449 345.398 148.449C345.398 148.449 346.208 150.706 347.277 154.039C347.812 155.703 348.433 157.647 349.103 159.731C349.72 161.824 350.466 164.018 351.068 166.256C351.757 168.47 352.321 170.708 352.87 172.801C353.376 174.904 353.853 176.872 354.152 178.579C354.489 180.287 354.686 181.734 354.797 182.756C354.917 183.793 354.985 184.386 354.985 184.386C354.985 184.386 355.149 183.817 355.385 182.785C355.602 181.758 355.838 180.248 355.838 178.444C355.91 176.631 355.736 174.523 355.414 172.295C355.096 170.067 354.547 167.727 353.896 165.427L353.891 165.431Z" fill="#006C81"/>
<path d="M373.011 221.963C371.027 222.407 368.931 222.909 366.821 223.314C362.616 224.201 358.391 224.814 355.168 225.036C354.359 225.118 353.622 225.108 352.962 225.142C352.297 225.175 351.714 225.19 351.237 225.161C350.259 225.161 349.705 225.161 349.705 225.161C349.705 225.161 350.211 225.388 351.131 225.745C351.594 225.933 352.162 226.13 352.832 226.27C353.496 226.429 354.257 226.651 355.096 226.733C356.772 226.994 358.762 227.134 360.867 227.013C362.986 226.96 365.207 226.613 367.409 226.208C371.797 225.296 376.008 223.757 379.004 222.277C382.025 220.835 383.831 219.484 383.831 219.484C383.831 219.484 381.63 219.933 378.44 220.69C376.851 221.066 375.001 221.5 373.011 221.968V221.963Z" fill="#006C81"/>
<path d="M357.939 164.206C356.089 165.041 354.138 165.957 352.148 166.782C348.208 168.504 344.195 169.955 341.083 170.824C340.307 171.07 339.585 171.209 338.939 171.373C338.294 171.542 337.73 171.672 337.253 171.74C336.299 171.933 335.75 172.044 335.75 172.044C335.75 172.044 336.29 172.164 337.263 172.324C337.749 172.415 338.347 172.492 339.031 172.497C339.715 172.521 340.505 172.584 341.343 172.497C343.034 172.415 345.014 172.15 347.051 171.605C349.113 171.123 351.223 170.336 353.3 169.492C357.414 167.713 361.224 165.354 363.859 163.3C366.528 161.279 368.021 159.586 368.021 159.586C368.021 159.586 365.955 160.468 362.987 161.857C361.508 162.547 359.779 163.348 357.929 164.206H357.939Z" fill="#006C81"/>
<path d="M338.049 125.424C337.326 124.44 336.743 122.944 336.131 121.343C335.548 119.689 334.927 117.928 334.306 116.163C333.617 114.388 332.933 112.613 332.196 110.983C331.825 110.1 331.512 109.512 331.391 108.871C331.275 108.234 331.285 107.607 331.42 107.009C331.704 105.813 332.379 104.824 332.851 104.153C333.361 103.478 333.65 103.092 333.65 103.092C333.65 103.092 333.198 103.276 332.456 103.724C331.743 104.187 330.64 104.911 329.85 106.387C329.459 107.115 329.18 108.041 329.199 109.039C329.194 110.038 329.493 111.084 329.753 111.866C330.254 113.583 330.9 115.372 331.531 117.166C332.229 118.951 332.875 120.74 333.756 122.399C334.609 124.03 335.539 125.573 336.844 126.62C337.475 127.15 338.217 127.493 338.868 127.613C339.518 127.739 340.053 127.71 340.481 127.686C341.334 127.618 341.816 127.555 341.816 127.555C341.816 127.555 341.358 127.391 340.558 127.107C339.744 126.842 338.728 126.441 338.044 125.428L338.049 125.424Z" fill="#006C81"/>
<path d="M334.064 115.671C333.375 113.911 332.696 112.15 331.963 110.534C331.732 109.845 331.038 108.547 330.181 108.026C329.362 107.409 328.5 107.134 327.734 106.975C326.192 106.661 324.935 106.825 324.092 106.994C323.239 107.178 322.801 107.375 322.801 107.375C322.801 107.375 323.297 107.424 324.097 107.578C324.901 107.737 326.038 108.017 327.199 108.576C327.772 108.861 328.331 109.247 328.745 109.69C329.203 110.182 329.242 110.506 329.55 111.494C330.051 113.202 330.692 114.981 331.318 116.761C332.696 120.282 334.199 123.624 334.82 126.21C335.114 127.488 335.037 128.51 334.724 129.272C334.401 130.044 334.218 130.488 334.218 130.488C334.218 130.488 334.598 130.198 335.22 129.586C335.861 128.988 336.506 127.637 336.511 126.075C336.564 124.526 336.28 122.8 335.822 121.034C335.393 119.235 334.695 117.46 334.059 115.671H334.064Z" fill="#006C81"/>
<path d="M320.623 86.1342C319.086 84.586 317.641 81.8416 315.979 79.1118C315.088 77.742 314.389 76.5265 313.831 75.2484C313.291 73.9896 312.939 72.7597 312.795 71.6407C312.646 70.5266 312.655 69.5234 312.646 68.7999C312.646 68.0668 312.583 67.652 312.583 67.652C312.583 67.652 312.4 68.0234 312.077 68.6745C311.769 69.3256 311.321 70.2951 311.114 71.5973C310.873 72.8899 310.945 74.4912 311.383 76.0876C311.774 77.6793 312.66 79.295 313.469 80.6503C315.155 83.3706 317.193 86.2066 319.631 87.504C320.811 88.16 321.929 88.3336 322.666 88.3529C323.412 88.3722 323.822 88.2902 323.822 88.2902C323.822 88.2902 323.427 88.1214 322.815 87.7837C322.193 87.4558 321.394 86.9204 320.628 86.1391L320.623 86.1342Z" fill="#006C81"/>
<path d="M313.254 75.2243C312.223 74.0522 311.042 73.0442 309.814 72.4847C308.581 71.9011 307.42 71.9011 306.721 71.9928C306.003 72.0844 305.608 72.1809 305.608 72.1809C305.608 72.1809 305.989 72.3207 306.654 72.5715C307.314 72.8079 308.147 73.2034 308.913 73.9075C310.455 75.3255 311.967 77.9783 313.475 80.6165C314.308 81.9959 314.973 83.2596 315.628 84.5184C316.255 85.7676 316.703 86.9204 316.919 87.9573C317.107 88.9895 317.059 89.9541 317.006 90.6583C316.958 91.3625 316.953 91.7773 316.953 91.7773C316.953 91.7773 317.194 91.4445 317.565 90.8319C317.926 90.229 318.451 89.2692 318.61 87.9236C318.943 85.184 317.599 81.9139 316.038 79.1696C315.185 77.7612 314.308 76.4011 313.254 75.2243Z" fill="#006C81"/>
<path d="M28.9484 393.513C28.6979 391.892 28.4908 389.997 28.2933 387.966C28.1151 385.935 27.9272 383.765 27.8356 381.58C27.5707 377.225 27.431 372.841 27.3106 369.522C27.1901 366.175 27.1082 363.947 27.1082 363.947C27.1082 363.947 26.2122 366.054 25.6293 369.397C24.9982 372.725 24.6418 377.235 24.8923 381.749C25.0464 384.001 25.2825 386.259 25.7257 388.342C26.1399 390.431 26.6747 392.355 27.3106 393.947C27.9031 395.548 28.5631 396.821 29.093 397.665C29.6229 398.509 29.9456 398.968 29.9456 398.968C29.9456 398.968 29.8348 398.413 29.6373 397.448C29.4205 396.503 29.1893 395.133 28.9436 393.513H28.9484Z" fill="#006C81"/>
<path d="M38.6031 380.365C38.0539 380.49 37.4662 380.669 36.7918 380.789C34.1374 381.353 30.587 381.836 26.9885 382.188C23.3514 382.53 19.7191 382.873 16.9925 383.128C14.237 383.394 12.3486 383.697 12.3486 383.697C12.3486 383.697 14.1455 384.378 16.9444 384.812C18.3414 385.033 19.9793 385.222 21.7424 385.27C23.5104 385.361 25.394 385.255 27.2824 385.115C29.1611 384.874 31.0495 384.614 32.7741 384.107C34.5035 383.664 36.0836 383.037 37.365 382.381C38.0202 382.096 38.5742 381.701 39.0655 381.392C39.5665 381.098 39.9712 380.779 40.2843 380.49C40.9202 379.94 41.2526 379.607 41.2526 379.607C41.2526 379.607 40.7998 379.738 40.0049 379.974C39.6244 380.114 39.1523 380.234 38.6031 380.36V380.365Z" fill="#006C81"/>
<path d="M37.0467 449.205C36.141 446.075 35.2402 441.855 34.5658 437.562C34.1949 435.421 33.8962 433.265 33.5975 431.234C33.3133 429.194 33.0435 427.294 32.8171 425.664C32.3402 422.36 32.0222 420.156 32.0222 420.156C32.0222 420.156 31.3767 422.34 31.1359 425.712C30.8468 429.074 30.9528 433.583 31.6657 438.04C32.0704 440.258 32.5329 442.477 33.2217 444.493C33.8576 446.519 34.6573 448.361 35.4907 449.856C36.3048 451.356 37.1286 452.533 37.7934 453.271C38.4534 454.019 38.8436 454.419 38.8436 454.419C38.8436 454.419 38.6461 453.893 38.2992 452.972C37.9283 452.085 37.514 450.763 37.0515 449.205H37.0467Z" fill="#006C81"/>
<path d="M46.6085 433.733C44.8887 433.617 42.8847 433.713 40.7555 433.94C38.6262 434.172 36.3813 434.611 34.175 435.16C29.7575 436.289 25.523 438.064 22.57 439.815C21.0863 440.664 19.9253 441.551 19.1497 442.193C18.4175 442.863 18.0225 443.278 18.0225 443.278C18.0225 443.278 18.5476 443.061 19.4677 442.675C20.3878 442.332 21.674 441.86 23.2589 441.349C26.4143 440.326 30.639 439.082 34.9024 438.011C39.1513 436.882 43.4387 435.976 46.7048 435.421C48.3379 435.131 49.7157 434.953 50.6936 434.837C51.6812 434.717 52.2448 434.649 52.2448 434.649C52.2448 434.649 51.7053 434.485 50.7273 434.249C49.7542 434.032 48.3235 433.776 46.6133 433.728L46.6085 433.733Z" fill="#006C81"/>
<path d="M52.067 497.615C50.1545 493.501 48.7045 489.175 47.6687 485.847C47.1485 484.173 46.7197 482.774 46.4162 481.8C46.0887 480.816 45.9008 480.252 45.9008 480.252C45.9008 480.252 45.6696 482.615 46.0212 486.184C46.185 487.959 46.5078 490.028 47.0666 492.204C47.3701 493.284 47.6398 494.418 48.0686 495.522C48.4588 496.641 48.9261 497.745 49.3982 498.855C49.9281 499.93 50.4628 501.011 51.0505 502.033C51.5949 503.08 52.2886 504.02 52.8907 504.961C54.1721 506.799 55.4825 508.419 56.6964 509.717C59.0955 512.34 60.9887 513.797 60.9887 513.797C60.9887 513.797 59.847 511.694 58.0549 508.704C56.2677 505.699 53.9505 501.753 52.0718 497.625L52.067 497.615Z" fill="#006C81"/>
<path d="M61.7401 490.303C60.1214 490.496 58.2668 490.901 56.3109 491.471C54.3551 492.03 52.3366 492.845 50.3519 493.737C48.4105 494.717 46.4932 495.753 44.8264 496.945C43.15 498.112 41.6807 499.337 40.5342 500.509C39.3732 501.643 38.5013 502.752 37.9714 503.509C37.4511 504.3 37.1572 504.753 37.1572 504.753C37.1572 504.753 37.6052 504.45 38.3905 503.919C39.1757 503.374 40.2499 502.66 41.5891 501.831C44.2387 500.152 47.8758 498.175 51.614 496.405C55.3523 494.63 59.1965 493.057 62.1543 491.953C65.1507 490.844 67.1499 490.101 67.1499 490.101C67.1499 490.101 64.9725 489.864 61.7449 490.313L61.7401 490.303Z" fill="#006C81"/>
<path d="M77.0978 550.424C77.0304 550.187 77.0159 550.057 76.9099 549.734C76.4089 548.022 75.7393 546.252 75.0167 544.486C74.6121 543.623 74.2074 542.755 73.8076 541.901C73.3885 541.038 72.926 540.266 72.4154 539.446C71.3267 537.777 69.92 536.625 68.6578 535.858C67.3957 535.072 66.254 534.638 65.4543 534.372C64.6498 534.112 64.1777 534.015 64.1777 534.015C64.1777 534.015 64.539 534.329 65.1701 534.879C65.7964 535.419 66.6683 536.2 67.6029 537.17C68.5278 538.149 69.4961 539.355 70.1705 540.739C70.5318 541.443 70.8594 542.316 71.2351 543.117C71.5868 543.951 71.9481 544.795 72.3094 545.644C73.0464 547.347 73.7835 549.044 74.4772 550.641C74.5254 550.723 74.6217 551.017 74.694 551.191L74.8337 551.644C74.93 551.991 75.0023 552.348 75.0505 552.71C75.1372 553.433 75.1901 554.152 75.1901 554.827C75.1901 557.528 74.7807 559.438 74.7807 559.438C74.7807 559.438 76.1247 557.953 76.8666 555.044C77.0545 554.326 77.2134 553.515 77.2472 552.628C77.2712 552.184 77.2616 551.716 77.2231 551.229C77.2038 550.978 77.146 550.684 77.093 550.428L77.0978 550.424Z" fill="#006C81"/>
<path d="M77.671 551.017C77.3483 550.525 77.1556 549.951 76.8521 549.126C76.3125 547.583 75.6381 545.986 74.9685 544.38C74.2459 542.803 73.5329 541.226 72.767 539.789C72.4057 539.07 72.0829 538.535 71.8613 537.898C71.6542 537.285 71.5 536.678 71.4374 536.099C71.3218 534.941 71.4759 533.9 71.6638 533.176C71.8421 532.453 72.0107 532.019 72.0107 532.019C72.0107 532.019 71.6542 532.284 71.1435 532.911C70.6425 533.528 70.0115 534.565 69.7562 536.017C69.6309 536.736 69.5972 537.551 69.7272 538.39C69.8284 539.215 70.1175 540.131 70.4258 540.893C70.9653 542.437 71.6397 544.038 72.3045 545.639C73.0271 547.216 73.7401 548.798 74.5012 550.236C74.8143 550.911 75.3154 551.769 75.9657 552.416C76.5679 553.047 77.2471 553.491 77.883 553.819C79.1596 554.485 80.335 554.673 81.1347 554.707C81.9488 554.731 82.3824 554.586 82.3824 554.586C82.3824 554.586 80.5951 554.08 78.8416 552.425C78.4129 552.015 78.0034 551.538 77.6614 551.017H77.671Z" fill="#006C81"/>
<path d="M98.1688 582.845C97.4077 581.301 96.4009 579.854 95.4326 578.417C94.9316 577.723 94.4306 577.033 93.9392 576.348C93.419 575.62 93.1444 575.171 92.4458 574.245C91.0874 572.707 89.4639 572.089 88.1151 571.752C86.7518 571.404 85.5812 571.428 84.7911 571.525C83.9818 571.631 83.5771 571.8 83.5771 571.8C83.5771 571.8 85.374 572.123 87.4936 573.348C88.5342 573.951 89.6951 574.809 90.3696 575.832C90.6104 576.227 91.1066 577.279 91.5739 577.94C92.0556 578.658 92.5374 579.387 93.0288 580.115C94.05 581.509 95.0424 582.888 95.924 584.152C96.3864 584.88 96.6562 585.208 96.8055 585.816C96.9549 586.424 97.0464 587.079 97.109 587.692C97.2921 590.176 97.1235 591.98 97.1235 591.98C97.1235 591.98 98.2652 590.523 98.8096 587.798C98.9444 587.118 99.0504 586.356 98.9926 585.493C98.9926 584.6 98.5446 583.501 98.1688 582.845Z" fill="#006C81"/>
<path d="M103.685 586.269C102.963 586.139 101.951 585.845 100.853 585.348C100.303 585.107 99.7446 584.774 99.2436 584.417C98.9931 584.248 98.7666 583.997 98.6847 583.896L98.5258 583.674C98.5258 583.674 98.4102 583.52 98.5017 583.626L98.4294 583.501L98.1259 582.999C97.3215 581.625 96.4013 580.178 95.486 578.74C94.5467 577.342 93.6073 575.943 92.7257 574.626C92.3548 574.067 92.1621 573.628 92.0272 572.972C91.9164 572.359 91.8682 571.708 91.849 571.096C91.849 569.866 91.9116 568.776 91.9357 568.014C91.9453 567.237 91.9549 566.798 91.9549 566.798C91.9549 566.798 91.7189 567.179 91.3624 567.864C91.0155 568.554 90.5194 569.543 90.1581 570.869C89.975 571.535 89.8161 572.287 89.8161 573.145C89.7775 573.965 89.9847 575.07 90.4471 575.899C91.1794 577.433 92.0995 578.885 93.0292 580.351C93.9975 581.789 94.9947 583.192 96.0304 584.461L96.4158 584.938L96.5169 585.054C96.6663 585.237 96.6181 585.165 96.6808 585.232L96.9072 585.449C97.3937 585.879 97.7743 586.091 98.1693 586.274C98.9497 586.655 99.7108 586.805 100.395 586.925C101.773 587.137 102.929 587.022 103.704 586.834C104.485 586.641 104.861 586.385 104.861 586.385C104.861 586.385 104.408 586.409 103.685 586.269Z" fill="#006C81"/>
<path d="M367.79 363.947C367.79 363.947 367.708 366.175 367.587 369.522C367.472 372.836 367.327 377.225 367.062 381.58C366.971 383.76 366.783 385.931 366.604 387.966C366.407 389.997 366.2 391.892 365.949 393.513C365.708 395.133 365.472 396.498 365.256 397.448C365.058 398.413 364.947 398.968 364.947 398.968C364.947 398.968 365.27 398.509 365.8 397.665C366.33 396.821 366.99 395.548 367.582 393.947C368.218 392.355 368.758 390.431 369.167 388.342C369.606 386.259 369.842 384.001 369.996 381.749C370.246 377.235 369.89 372.725 369.259 369.397C368.676 366.054 367.78 363.947 367.78 363.947H367.79Z" fill="#006C81"/>
<path d="M367.915 382.183C364.317 381.831 360.767 381.353 358.112 380.784C357.438 380.664 356.85 380.485 356.301 380.36C355.752 380.234 355.28 380.109 354.899 379.974C354.104 379.742 353.651 379.607 353.651 379.607C353.651 379.607 353.984 379.935 354.624 380.49C354.938 380.775 355.342 381.098 355.843 381.392C356.335 381.701 356.889 382.096 357.549 382.381C358.83 383.041 360.41 383.664 362.14 384.107C363.864 384.614 365.748 384.874 367.631 385.115C369.52 385.255 371.403 385.361 373.171 385.27C374.934 385.217 376.577 385.033 377.969 384.812C380.768 384.378 382.565 383.697 382.565 383.697C382.565 383.697 380.677 383.394 377.921 383.128C375.194 382.873 371.557 382.53 367.925 382.188L367.915 382.183Z" fill="#006C81"/>
<path d="M362.881 420.156C362.881 420.156 362.563 422.36 362.086 425.664C361.855 427.294 361.59 429.199 361.306 431.234C361.007 433.265 360.708 435.421 360.337 437.562C359.658 441.855 358.762 446.075 357.856 449.205C357.394 450.763 356.985 452.08 356.609 452.972C356.262 453.893 356.064 454.419 356.064 454.419C356.064 454.419 356.455 454.024 357.115 453.271C357.784 452.533 358.608 451.356 359.417 449.856C360.251 448.361 361.05 446.524 361.686 444.493C362.375 442.472 362.838 440.258 363.242 438.04C363.95 433.583 364.061 429.074 363.772 425.712C363.531 422.34 362.886 420.156 362.886 420.156H362.881Z" fill="#006C81"/>
<path d="M375.758 442.188C374.983 441.546 373.822 440.659 372.338 439.81C369.385 438.059 365.15 436.284 360.733 435.155C358.522 434.606 356.282 434.167 354.153 433.935C352.023 433.709 350.019 433.612 348.299 433.728C346.584 433.781 345.159 434.032 344.185 434.249C343.208 434.485 342.668 434.649 342.668 434.649C342.668 434.649 343.232 434.717 344.219 434.837C345.197 434.953 346.575 435.127 348.208 435.421C351.474 435.975 355.761 436.887 360.01 438.011C364.274 439.077 368.494 440.321 371.654 441.348C373.239 441.865 374.53 442.332 375.445 442.675C376.365 443.056 376.89 443.278 376.89 443.278C376.89 443.278 376.495 442.863 375.763 442.192L375.758 442.188Z" fill="#006C81"/>
<path d="M348.491 481.8C348.188 482.779 347.754 484.173 347.239 485.847C346.203 489.175 344.753 493.506 342.841 497.615C340.962 501.744 338.645 505.694 336.858 508.694C335.061 511.684 333.919 513.787 333.919 513.787C333.919 513.787 335.812 512.33 338.211 509.707C339.43 508.409 340.735 506.789 342.017 504.951C342.619 504.011 343.313 503.07 343.857 502.023C344.45 501.001 344.98 499.925 345.509 498.845C345.982 497.736 346.444 496.631 346.839 495.512C347.268 494.408 347.537 493.274 347.841 492.194C348.395 490.019 348.723 487.95 348.886 486.175C349.233 482.61 349.007 480.242 349.007 480.242C349.007 480.242 348.819 480.806 348.491 481.79V481.8Z" fill="#006C81"/>
<path d="M354.369 500.504C353.227 499.332 351.753 498.107 350.076 496.94C348.41 495.749 346.492 494.712 344.551 493.733C342.566 492.84 340.548 492.03 338.592 491.466C336.636 490.897 334.781 490.496 333.163 490.298C329.935 489.85 327.758 490.086 327.758 490.086C327.758 490.086 329.757 490.829 332.753 491.938C335.706 493.043 339.555 494.615 343.294 496.39C347.032 498.16 350.669 500.138 353.319 501.816C354.658 502.651 355.732 503.364 356.517 503.905C357.302 504.435 357.751 504.739 357.751 504.739C357.751 504.739 357.452 504.286 356.936 503.495C356.402 502.737 355.535 501.628 354.369 500.495V500.504Z" fill="#006C81"/>
<path d="M326.245 535.858C324.983 536.625 323.576 537.782 322.487 539.446C321.977 540.266 321.514 541.038 321.095 541.901C320.695 542.755 320.291 543.618 319.886 544.486C319.168 546.252 318.494 548.027 317.993 549.734C317.887 550.062 317.868 550.192 317.805 550.424C317.752 550.684 317.694 550.973 317.675 551.224C317.636 551.711 317.627 552.179 317.651 552.623C317.685 553.51 317.839 554.316 318.031 555.039C318.778 557.943 320.117 559.433 320.117 559.433C320.117 559.433 319.703 557.523 319.708 554.822C319.708 554.152 319.761 553.428 319.848 552.705C319.896 552.343 319.973 551.986 320.064 551.639L320.204 551.186C320.276 551.012 320.373 550.718 320.421 550.636C321.114 549.044 321.852 547.342 322.589 545.639C322.95 544.795 323.306 543.946 323.663 543.112C324.039 542.311 324.366 541.443 324.727 540.734C325.407 539.35 326.37 538.144 327.295 537.165C328.23 536.191 329.106 535.414 329.728 534.874C330.359 534.324 330.72 534.01 330.72 534.01C330.72 534.01 330.248 534.107 329.444 534.367C328.644 534.633 327.502 535.067 326.24 535.853L326.245 535.858Z" fill="#006C81"/>
<path d="M323.755 532.916C323.245 532.289 322.888 532.023 322.888 532.023C322.888 532.023 323.057 532.457 323.235 533.181C323.423 533.904 323.572 534.946 323.461 536.104C323.399 536.682 323.245 537.285 323.038 537.903C322.821 538.539 322.493 539.08 322.132 539.793C321.366 541.231 320.653 542.813 319.93 544.385C319.266 545.986 318.586 547.588 318.047 549.131C317.743 549.956 317.555 550.53 317.228 551.022C316.886 551.538 316.476 552.02 316.048 552.43C314.294 554.084 312.507 554.591 312.507 554.591C312.507 554.591 312.94 554.731 313.755 554.711C314.554 554.678 315.73 554.494 317.006 553.824C317.647 553.496 318.321 553.057 318.924 552.42C319.574 551.774 320.075 550.915 320.388 550.24C321.154 548.803 321.862 547.221 322.585 545.644C323.25 544.043 323.924 542.441 324.463 540.898C324.772 540.136 325.061 539.219 325.162 538.395C325.292 537.555 325.258 536.745 325.133 536.022C324.883 534.57 324.247 533.533 323.746 532.916H323.755Z" fill="#006C81"/>
<path d="M306.793 571.756C305.444 572.094 303.821 572.711 302.462 574.25C301.764 575.176 301.489 575.624 300.969 576.353C300.478 577.033 299.977 577.727 299.476 578.422C298.507 579.859 297.5 581.306 296.739 582.85C296.364 583.506 295.916 584.61 295.916 585.497C295.858 586.366 295.964 587.123 296.099 587.803C296.648 590.523 297.785 591.985 297.785 591.985C297.785 591.985 297.611 590.181 297.799 587.697C297.857 587.084 297.953 586.428 298.103 585.821C298.252 585.213 298.527 584.885 298.984 584.157C299.866 582.893 300.858 581.514 301.879 580.12C302.366 579.391 302.853 578.663 303.329 577.944C303.802 577.284 304.298 576.232 304.534 575.837C305.208 574.814 306.369 573.956 307.41 573.353C309.525 572.133 311.326 571.805 311.326 571.805C311.326 571.805 310.922 571.636 310.112 571.53C309.322 571.433 308.152 571.409 306.788 571.756H306.793Z" fill="#006C81"/>
<path d="M303.541 567.869C303.185 567.184 302.949 566.803 302.949 566.803C302.949 566.803 302.953 567.247 302.968 568.018C302.992 568.785 303.059 569.875 303.055 571.1C303.035 571.713 302.992 572.359 302.876 572.977C302.741 573.628 302.549 574.071 302.178 574.631C301.296 575.943 300.357 577.342 299.418 578.745C298.502 580.182 297.582 581.629 296.778 583.004L296.474 583.505L296.402 583.631C296.489 583.525 296.378 583.679 296.378 583.679L296.219 583.901C296.142 584.002 295.91 584.253 295.66 584.422C295.164 584.779 294.6 585.107 294.051 585.353C292.953 585.85 291.941 586.144 291.218 586.274C290.491 586.414 290.043 586.39 290.043 586.39C290.043 586.39 290.419 586.64 291.199 586.838C291.975 587.031 293.126 587.142 294.509 586.93C295.198 586.814 295.954 586.66 296.734 586.279C297.129 586.096 297.51 585.883 297.996 585.454L298.223 585.237C298.285 585.169 298.237 585.242 298.387 585.059L298.488 584.943L298.873 584.465C299.909 583.197 300.906 581.793 301.874 580.356C302.804 578.89 303.724 577.438 304.456 575.904C304.919 575.075 305.126 573.975 305.087 573.15C305.087 572.292 304.929 571.539 304.745 570.874C304.384 569.547 303.888 568.559 303.541 567.869Z" fill="#006C81"/>
</svg>
